<mxfile host="app.diagrams.net" modified="2022-09-14T21:58:32.416Z" agent="5.0 (Macintosh; Intel Mac OS X 10_15_7) AppleWebKit/605.1.15 (KHTML, like Gecko) Version/15.6 Safari/605.1.15" etag="CDSVdU-y1n0QqIh850B_" version="20.3.0" type="github">
  <diagram id="VPNnEiU2hxA0ASORsE2H" name="第 1 页">
    <mxGraphModel dx="7770" dy="3600" grid="1" gridSize="10" guides="1" tooltips="1" connect="1" arrows="1" fold="1" page="1" pageScale="1" pageWidth="1600" pageHeight="900" math="0" shadow="0">
      <root>
        <mxCell id="0" />
        <mxCell id="1" parent="0" />
        <mxCell id="zS9x1l_s2QxTBegf1Snv-36" value="" style="endArrow=block;html=1;rounded=0;fontSize=72;strokeWidth=14;endFill=1;" edge="1" parent="1">
          <mxGeometry width="50" height="50" relative="1" as="geometry">
            <mxPoint x="3190" y="449" as="sourcePoint" />
            <mxPoint x="3350" y="449" as="targetPoint" />
          </mxGeometry>
        </mxCell>
        <mxCell id="zS9x1l_s2QxTBegf1Snv-31" value="" style="shape=cube;whiteSpace=wrap;html=1;boundedLbl=1;backgroundOutline=1;darkOpacity=0.05;darkOpacity2=0.1;fontSize=24;size=190;fillColor=#dae8fc;strokeColor=#6c8ebf;" vertex="1" parent="1">
          <mxGeometry x="3020" y="89.94" width="240" height="720" as="geometry" />
        </mxCell>
        <mxCell id="zS9x1l_s2QxTBegf1Snv-30" value="" style="shape=cube;whiteSpace=wrap;html=1;boundedLbl=1;backgroundOutline=1;darkOpacity=0.05;darkOpacity2=0.1;fontSize=24;size=160;" vertex="1" parent="1">
          <mxGeometry x="2750" y="143" width="365" height="614" as="geometry" />
        </mxCell>
        <mxCell id="zS9x1l_s2QxTBegf1Snv-29" value="" style="shape=cube;whiteSpace=wrap;html=1;boundedLbl=1;backgroundOutline=1;darkOpacity=0.05;darkOpacity2=0.1;fontSize=24;size=130;" vertex="1" parent="1">
          <mxGeometry x="2440" y="242.44" width="380" height="415" as="geometry" />
        </mxCell>
        <mxCell id="zS9x1l_s2QxTBegf1Snv-28" value="" style="shape=cube;whiteSpace=wrap;html=1;boundedLbl=1;backgroundOutline=1;darkOpacity=0.05;darkOpacity2=0.1;fontSize=24;size=70;" vertex="1" parent="1">
          <mxGeometry x="2140" y="335" width="330" height="210" as="geometry" />
        </mxCell>
        <mxCell id="zS9x1l_s2QxTBegf1Snv-25" value="" style="shape=cube;whiteSpace=wrap;html=1;boundedLbl=1;backgroundOutline=1;darkOpacity=0.05;darkOpacity2=0.1;fontSize=24;size=30;fillColor=#d5e8d4;strokeColor=#82b366;" vertex="1" parent="1">
          <mxGeometry x="1510" y="400" width="600" height="100" as="geometry" />
        </mxCell>
        <mxCell id="zS9x1l_s2QxTBegf1Snv-24" value="" style="shape=cube;whiteSpace=wrap;html=1;boundedLbl=1;backgroundOutline=1;darkOpacity=0.05;darkOpacity2=0.1;fontSize=24;size=130;" vertex="1" parent="1">
          <mxGeometry x="940" y="199" width="540" height="501.89" as="geometry" />
        </mxCell>
        <mxCell id="zS9x1l_s2QxTBegf1Snv-2" value="" style="whiteSpace=wrap;html=1;aspect=fixed;" vertex="1" parent="1">
          <mxGeometry x="-400" y="80" width="720" height="720" as="geometry" />
        </mxCell>
        <mxCell id="zS9x1l_s2QxTBegf1Snv-13" value="&lt;font style=&quot;font-size: 72px;&quot;&gt;&lt;b style=&quot;font-size: 72px;&quot;&gt;Encoder&lt;/b&gt;&lt;/font&gt;" style="text;html=1;align=center;verticalAlign=middle;resizable=0;points=[];autosize=1;strokeColor=none;fillColor=none;fontSize=72;" vertex="1" parent="1">
          <mxGeometry x="780" y="800" width="310" height="100" as="geometry" />
        </mxCell>
        <mxCell id="zS9x1l_s2QxTBegf1Snv-22" value="" style="shape=cube;whiteSpace=wrap;html=1;boundedLbl=1;backgroundOutline=1;darkOpacity=0.05;darkOpacity2=0.1;fontSize=24;size=160;" vertex="1" parent="1">
          <mxGeometry x="600" y="143" width="365" height="614" as="geometry" />
        </mxCell>
        <mxCell id="zS9x1l_s2QxTBegf1Snv-11" value="" style="shape=cube;whiteSpace=wrap;html=1;boundedLbl=1;backgroundOutline=1;darkOpacity=0.05;darkOpacity2=0.1;fontSize=24;size=190;fillColor=#dae8fc;strokeColor=#6c8ebf;" vertex="1" parent="1">
          <mxGeometry x="410" y="80" width="240" height="720" as="geometry" />
        </mxCell>
        <mxCell id="zS9x1l_s2QxTBegf1Snv-32" value="&lt;font style=&quot;font-size: 72px;&quot;&gt;&lt;b style=&quot;font-size: 72px;&quot;&gt;Decoder&lt;/b&gt;&lt;/font&gt;" style="text;html=1;align=center;verticalAlign=middle;resizable=0;points=[];autosize=1;strokeColor=none;fillColor=none;fontSize=72;" vertex="1" parent="1">
          <mxGeometry x="2590" y="800" width="310" height="100" as="geometry" />
        </mxCell>
        <mxCell id="zS9x1l_s2QxTBegf1Snv-35" value="" style="endArrow=block;html=1;rounded=0;fontSize=72;strokeWidth=14;endFill=1;" edge="1" parent="1">
          <mxGeometry width="50" height="50" relative="1" as="geometry">
            <mxPoint x="340" y="439" as="sourcePoint" />
            <mxPoint x="500" y="439" as="targetPoint" />
          </mxGeometry>
        </mxCell>
        <mxCell id="zS9x1l_s2QxTBegf1Snv-37" value="&lt;font style=&quot;font-size: 72px;&quot;&gt;&lt;b style=&quot;font-size: 72px;&quot;&gt;Embedding&lt;/b&gt;&lt;/font&gt;" style="text;html=1;align=center;verticalAlign=middle;resizable=0;points=[];autosize=1;strokeColor=none;fillColor=none;fontSize=72;" vertex="1" parent="1">
          <mxGeometry x="5840" y="3330" width="420" height="100" as="geometry" />
        </mxCell>
        <mxCell id="zS9x1l_s2QxTBegf1Snv-38" value="" style="whiteSpace=wrap;html=1;aspect=fixed;" vertex="1" parent="1">
          <mxGeometry x="3390" y="80" width="720" height="720" as="geometry" />
        </mxCell>
      </root>
    </mxGraphModel>
  </diagram>
</mxfile>
